<?xml version="1.0" encoding="utf-8"?>
<!-- Generator: Adobe Illustrator 23.0.0, SVG Export Plug-In . SVG Version: 6.00 Build 0)  -->
<svg version="1.1" id="Layer_1" xmlns="http://www.w3.org/2000/svg" xmlns:xlink="http://www.w3.org/1999/xlink" x="0px" y="0px"
	 viewBox="0 0 124.6 117.4" style="enable-background:new 0 0 124.6 117.4;" xml:space="preserve">
<style type="text/css">
	.st0{fill:#F49021;}
	.st1{fill:#FFFFFF;}
	.st2{fill:#DC3545;}
</style>
<g>
	<g>
		<g>
			<path class="st0" d="M107.9,33.6c0,0.4,0.1,0.7,0.1,1.1c0,7.3,0,14.7,0,22c0,1.1-0.3,1.5-1.5,1.5c-8.2,0-16.3,0-24.5,0
				c-3.7,0-7.9-1.2-10-2.8c2-2.8,3.9-5.7,5.9-8.6c5.5,1.7,11.3,0.7,17.1,1c1.3,0.1,1.9-0.3,1.8-1.8c-0.1-2.8,0.4-2.6-2.7-2.6
				c-3.6,0-7.1,0-10.7,0c-1.8,0-3.1-1.9-2.6-3.6c0.5-1.8,0.9-3.6,1.4-5.4c0.1-0.4,0.6-0.9,0.9-0.9c8.1,0,16.1,0,24.2,0
				C107.6,33.5,107.7,33.5,107.9,33.6z"/>
			<path class="st0" d="M108.8,16.8c-0.7,1.1-1.3,2-1.9,2.9c-1.5,2.1-2.9,4.3-4.4,6.4c-0.3,0.5-1.1,0.9-1.6,0.9
				c-5.6,0.1-11.1,0-16.7,0c-0.8,0-1.3-0.1-1.4-1c-0.3-3.2-1.1-6.2-2.7-9.2C89.6,16.8,99,16.8,108.8,16.8z"/>
		</g>
		<path class="st1" d="M36.2,58.4c7-3.3,12.6-7,17.7-11.2c-0.4,0.2-0.8,0.3-1.2,0.3c-7.4,0.1-14.9,0-22.3,0c-0.5,0-1,0-1.5,0
			c0-1.8,0-3.3,0-5c0.6,0,1.2,0,1.7,0c5.5,0,10.9,0,16.4,0c0.9,0,1.5-0.3,2-1.1c1.8-2.7,3.6-5.3,5.4-7.9c0.4-0.5,0.7-1.1,1.3-1.9
			c-9.1,0-17.9,0-26.8,0c0-1.5,0-2.9,0-4.5c0.6,0,1.1,0,1.6,0c6.2,0,12.3,0,18.5,0c0.8,0,1.3-0.2,1.8-0.9c2-3,4-6,6.1-8.9
			c0.2-0.3,0.3-0.6,0.5-0.9c-13.4,0-26.6,0-39.8,0c0,14,0,27.9,0,41.9c6.1,0,12.1,0,18.1,0C35.7,58.4,36.1,58.4,36.2,58.4z"/>
		<g>
			<g>
				<circle class="st2" cx="69.5" cy="6.7" r="0.9"/>
				<circle class="st2" cx="67.2" cy="4.9" r="1.5"/>
				<circle class="st2" cx="63.7" cy="4.2" r="0.9"/>
				<circle class="st2" cx="54.2" cy="2.6" r="0.9"/>
				<circle class="st2" cx="49.9" cy="1.9" r="0.8"/>
				<circle class="st2" cx="52.5" cy="0.6" r="0.6"/>
				<circle class="st2" cx="46.4" cy="0.6" r="0.6"/>
				<circle class="st2" cx="42.4" cy="0.6" r="0.4"/>
				<path class="st2" d="M63.6,5.9c-0.2,0-0.3,0.1-0.5,0.1c0,0,0,0,0,0c-1.6,0.6-2.2-0.8-2.2-0.8l0,0c-0.1-0.5-0.6-0.8-1.1-0.8
					c-0.6,0.1-1,0.6-1,1.2s0.6,1,1.2,1c1.1-0.2,1.8,1,2.1,1.6c0,0.1,0.1,0.3,0.2,0.4c0,0,0,0,0,0l0,0c0.3,0.6,1.1,1,1.8,1
					c1-0.1,1.8-1,1.7-2C65.5,6.5,64.6,5.8,63.6,5.9z"/>
				<path class="st2" d="M61.1,1.7c-0.1,0-0.2,0-0.3,0.1l0,0c0,0-1,0.7-2.2-0.1v0c-0.2-0.2-0.5-0.4-0.9-0.4c-0.7,0-1.2,0.6-1.2,1.2
					c0,0.7,0.6,1.2,1.2,1.2c0.4,0,0.7-0.2,0.9-0.4l0,0c0,0,1-1,2-0.1l0,0c0.1,0.1,0.3,0.2,0.5,0.2c0.5,0,0.9-0.4,0.9-0.9
					S61.5,1.7,61.1,1.7z"/>
			</g>
			<path class="st2" d="M77.9,14.5c-1.1-2.5-2.9-4.6-5.4-6.3l0,0c-0.3-0.3-0.8-0.4-1.2-0.4c-1.1,0-1.9,0.9-1.9,1.9
				c0,0.1,0,0.2,0,0.3c-0.2-0.9-1-1.5-1.9-1.5c-1.1,0-1.9,0.9-1.9,1.9c0,0.6,0.3,1.2,0.8,1.5l0,0c1.2,1.2,2.1,2.6,2.8,4.2
				c5.7,13.2-11,33.1-37.2,44.4c-5.4,2.3-10.8,4.1-16,5.3c7.8-1,16.3-3.3,24.8-6.9C66.9,47.5,83.6,27.7,77.9,14.5z"/>
		</g>
		<path class="st1" d="M61.1,40.6c2.1-2.3,3.8-4.6,5.2-6.9c2.6-4.7,3.8-9.3,3.4-13.4c-3.7,2.6-6.3,5.8-7.6,9.9
			c-0.9,2.9-1.3,5.8-0.9,8.8C61.3,39.5,61.2,40.1,61.1,40.6z"/>
	</g>
	<g>
		<path class="st1" d="M52.1,117.4c-2.6-13.9-13-19.1-24.8-22.6C15.4,91.3,7.6,83.1,1,73.3c-0.4-0.6-0.7-1.3-0.9-2
			c-0.1-0.3,0-0.7,0-2.1c1.7,0.7,3.2,1,4.2,1.9c2.3,1.9,4.4,4.1,6.6,6.1c6.7,6.1,14.7,9.2,23.5,10.7c1.4,0.2,3,0.1,4.4-0.3
			c2.7-0.8,3.6-2.7,1.9-5.1c-1.4-2-3.6-3.6-4.7-5.8c-1.3-2.5-1.9-5.4-2.4-8.3c-0.1-0.7,1.2-1.6,1.9-2.4c0.7,0.6,1.5,1.1,2.1,1.8
			c2.6,2.7,5,5.4,7.6,8.1c4,4.1,8.8,7.6,12,12.2C63.7,97.3,61.3,109.8,52.1,117.4z"/>
		<path class="st1" d="M124.6,70.3c-0.5,1.1-0.7,2.3-1.4,3.3c-6.6,9.8-14.5,18.1-26.4,21.4c-2.3,0.6-4.5,1.6-6.7,2.4
			c-9.2,3.5-15.6,9.6-17.7,19.6c-7.7-4.6-11-16.7-7.1-25.6c2.5-5.8,7-9.9,11.7-13.9c3.6-3.1,6.9-6.7,10.1-10.3
			c1.7-1.9,2.6-1.6,3.6,0.4c1.5,3.1,0.4,5.9-1.4,8.4c-1.5,2-3.4,3.7-4.9,5.7c-2.3,3.1-1.5,5.6,2.4,6.1c2.4,0.3,5,0,7.3-0.6
			c9.4-2.1,17.3-6.9,23.9-13.9c1.6-1.7,3.6-2.8,5.5-4.2C123.8,69.4,124.2,69.9,124.6,70.3z"/>
		<path class="st1" d="M101.7,81.9c1.4-6.9,3.3-9.6,7.1-9.8C107.3,76.1,107.4,80.7,101.7,81.9z"/>
		<path class="st1" d="M16.4,71.3c4.6,2.4,5.2,6.4,6.6,10.3C18.4,80.8,16.2,77.6,16.4,71.3z"/>
		<path class="st1" d="M8,67.6c5.4,1.7,5.6,6.3,8,10.5C11.2,75.8,8.5,73.1,8,67.6z"/>
		<path class="st1" d="M108.2,78.6c2.4-4.3,2.9-8.8,7.2-10.9C116.5,72,115,74.3,108.2,78.6z"/>
		<path class="st1" d="M94.5,84.2c2.1-3.5,3.7-6.1,5.8-9.5C101.4,80,99.6,83,94.5,84.2z"/>
		<path class="st1" d="M24.8,75.4c1.5,2.6,3.1,5.3,4.8,8.4c-4.8-0.5-6.4-3-5.9-7.8C24.1,75.8,24.5,75.6,24.8,75.4z"/>
	</g>
</g>
<text transform="matrix(1 0 0 1 -243.4554 136.6096)" class="st2" style="font-family:'Roboto-BoldCondensed'; font-size:13px;">Connected healths, better cares</text>
</svg>
